<svg xmlns="http://www.w3.org/2000/svg" viewBox="0 0 1024 1024">
  <defs>
    <linearGradient id="bg" x1="0" y1="0" x2="1" y2="1">
      <stop offset="0" stop-color="#101014"/>
      <stop offset="1" stop-color="#050507"/>
    </linearGradient>
    <linearGradient id="deck" x1="0" y1="0" x2="1" y2="1">
      <stop offset="0" stop-color="#ff4f8b"/>
      <stop offset=".45" stop-color="#f4e04d"/>
      <stop offset="1" stop-color="#23d6ff"/>
    </linearGradient>
    <filter id="shadow" x="-40%" y="-40%" width="180%" height="180%">
      <feDropShadow dx="0" dy="28" stdDeviation="34" flood-color="#000" flood-opacity=".55"/>
    </filter>
  </defs>
  <rect width="1024" height="1024" fill="url(#bg)"/>
  <path d="M0 176h1024M0 352h1024M0 528h1024M0 704h1024M0 880h1024M176 0v1024M352 0v1024M528 0v1024M704 0v1024M880 0v1024" stroke="#fff" stroke-opacity=".045" stroke-width="2"/>
  <g filter="url(#shadow)" transform="translate(512 504) rotate(-8)">
    <rect x="-138" y="-338" width="276" height="676" rx="138" fill="#151519" stroke="#f3efe2" stroke-opacity=".32" stroke-width="5"/>
    <rect x="-116" y="-316" width="232" height="632" rx="116" fill="url(#deck)"/>
    <path d="M-120-134c75-48 148-44 220 12M-100 52c86-30 162-18 226 37M-78 199c48-46 104-54 169-23" fill="none" stroke="#08080a" stroke-width="34" stroke-linecap="round" opacity=".74"/>
    <path d="M-92-254c94 48 145 123 151 224" fill="none" stroke="#f3efe2" stroke-width="20" stroke-linecap="round" opacity=".78"/>
    <circle cx="-52" cy="-68" r="68" fill="#08080a" opacity=".78"/>
    <circle cx="-52" cy="-68" r="28" fill="#f3efe2" opacity=".82"/>
    <path d="M-102 286h204" stroke="#08080a" stroke-width="18" stroke-linecap="round" opacity=".6"/>
  </g>
  <text x="512" y="112" text-anchor="middle" fill="#f3efe2" font-family="Impact, Arial Black, sans-serif" font-size="86" font-style="italic">DECK WALL</text>
  <text x="512" y="930" text-anchor="middle" fill="#23d6ff" font-family="Arial Black, sans-serif" font-size="28" letter-spacing="8">GENERATE · SPRAY · HANG</text>
</svg>
