<svg xmlns="http://www.w3.org/2000/svg" viewBox="0 0 1024 1024">
  <defs>
    <linearGradient id="bg" x1="0" y1="0" x2="1" y2="1">
      <stop offset="0" stop-color="#151318"/>
      <stop offset=".48" stop-color="#07070a"/>
      <stop offset="1" stop-color="#030304"/>
    </linearGradient>
    <linearGradient id="spray" x1="0" y1="0" x2="1" y2="1">
      <stop offset="0" stop-color="#ff4f8b"/>
      <stop offset=".42" stop-color="#f4e04d"/>
      <stop offset="1" stop-color="#23d6ff"/>
    </linearGradient>
    <linearGradient id="chrome" x1="0" y1="0" x2="1" y2="1">
      <stop offset="0" stop-color="#f5f1dd"/>
      <stop offset=".46" stop-color="#817c71"/>
      <stop offset="1" stop-color="#151515"/>
    </linearGradient>
    <radialGradient id="glowPink" cx="32%" cy="34%" r="50%">
      <stop offset="0" stop-color="#ff4f8b" stop-opacity=".46"/>
      <stop offset="1" stop-color="#ff4f8b" stop-opacity="0"/>
    </radialGradient>
    <radialGradient id="glowBlue" cx="78%" cy="24%" r="46%">
      <stop offset="0" stop-color="#23d6ff" stop-opacity=".34"/>
      <stop offset="1" stop-color="#23d6ff" stop-opacity="0"/>
    </radialGradient>
    <filter id="wallShadow" x="-60%" y="-40%" width="220%" height="200%">
      <feDropShadow dx="-18" dy="22" stdDeviation="13" flood-color="#000" flood-opacity=".6"/>
      <feDropShadow dx="0" dy="36" stdDeviation="34" flood-color="#000" flood-opacity=".42"/>
    </filter>
    <filter id="heroShadow" x="-70%" y="-50%" width="240%" height="220%">
      <feDropShadow dx="0" dy="42" stdDeviation="38" flood-color="#000" flood-opacity=".78"/>
      <feDropShadow dx="-16" dy="20" stdDeviation="9" flood-color="#000" flood-opacity=".42"/>
    </filter>
    <filter id="typeShadow" x="-20%" y="-40%" width="140%" height="190%">
      <feDropShadow dx="9" dy="10" stdDeviation="0" flood-color="#ff4f8b" flood-opacity=".72"/>
      <feDropShadow dx="0" dy="18" stdDeviation="18" flood-color="#000" flood-opacity=".64"/>
    </filter>
    <clipPath id="deckClipA"><rect x="-80" y="-230" width="160" height="460" rx="80"/></clipPath>
    <clipPath id="deckClipB"><rect x="-92" y="-265" width="184" height="530" rx="92"/></clipPath>
    <clipPath id="heroClip"><rect x="-118" y="-340" width="236" height="680" rx="118"/></clipPath>
  </defs>

  <rect width="1024" height="1024" fill="url(#bg)"/>
  <rect width="1024" height="1024" fill="url(#glowPink)"/>
  <rect width="1024" height="1024" fill="url(#glowBlue)"/>
  <path d="M0 164h1024M0 328h1024M0 492h1024M0 656h1024M0 820h1024M164 0v1024M328 0v1024M492 0v1024M656 0v1024M820 0v1024" stroke="#f3efe2" stroke-opacity=".055" stroke-width="2"/>
  <path d="M-40 775 1030 396M152 1040 930 22M676 -30 1010 988" stroke="#23d6ff" stroke-opacity=".16" stroke-width="5"/>
  <path d="M34 960 856 12" stroke="#ff4f8b" stroke-opacity=".13" stroke-width="7"/>

  <g opacity=".92" filter="url(#wallShadow)">
    <g transform="translate(158 464)">
      <rect x="-80" y="-230" width="160" height="460" rx="80" fill="#101014" stroke="#f3efe2" stroke-opacity=".38" stroke-width="3"/>
      <g clip-path="url(#deckClipA)"><image href="./img/review-decks/deck-00.jpg" x="-80" y="-230" width="160" height="460" preserveAspectRatio="xMidYMid slice"/></g>
      <rect x="-80" y="-230" width="160" height="460" rx="80" fill="none" stroke="#f3efe2" stroke-opacity=".42" stroke-width="3"/>
    </g>
    <g transform="translate(318 444)">
      <rect x="-80" y="-230" width="160" height="460" rx="80" fill="#101014" stroke="#f3efe2" stroke-opacity=".34" stroke-width="3"/>
      <g clip-path="url(#deckClipA)"><image href="./img/review-decks/deck-01.jpg" x="-80" y="-230" width="160" height="460" preserveAspectRatio="xMidYMid slice"/></g>
      <rect x="-80" y="-230" width="160" height="460" rx="80" fill="none" stroke="#f3efe2" stroke-opacity=".38" stroke-width="3"/>
    </g>
    <g transform="translate(478 460)">
      <rect x="-80" y="-230" width="160" height="460" rx="80" fill="#101014" stroke="#f3efe2" stroke-opacity=".34" stroke-width="3"/>
      <g clip-path="url(#deckClipA)"><image href="./img/review-decks/deck-02.jpg" x="-80" y="-230" width="160" height="460" preserveAspectRatio="xMidYMid slice"/></g>
      <rect x="-80" y="-230" width="160" height="460" rx="80" fill="none" stroke="#f3efe2" stroke-opacity=".38" stroke-width="3"/>
    </g>
    <g transform="translate(638 444)">
      <rect x="-80" y="-230" width="160" height="460" rx="80" fill="#101014" stroke="#f3efe2" stroke-opacity=".34" stroke-width="3"/>
      <g clip-path="url(#deckClipA)"><image href="./img/review-decks/deck-03.jpg" x="-80" y="-230" width="160" height="460" preserveAspectRatio="xMidYMid slice"/></g>
      <rect x="-80" y="-230" width="160" height="460" rx="80" fill="none" stroke="#f3efe2" stroke-opacity=".38" stroke-width="3"/>
    </g>
    <g transform="translate(798 466)">
      <rect x="-80" y="-230" width="160" height="460" rx="80" fill="#101014" stroke="#f3efe2" stroke-opacity=".34" stroke-width="3"/>
      <g clip-path="url(#deckClipA)"><image href="./img/review-decks/deck-04.jpg" x="-80" y="-230" width="160" height="460" preserveAspectRatio="xMidYMid slice"/></g>
      <rect x="-80" y="-230" width="160" height="460" rx="80" fill="none" stroke="#f3efe2" stroke-opacity=".38" stroke-width="3"/>
    </g>

    <g transform="translate(236 670)">
      <rect x="-80" y="-230" width="160" height="460" rx="80" fill="#101014" stroke="#f3efe2" stroke-opacity=".36" stroke-width="3"/>
      <g clip-path="url(#deckClipA)"><image href="./img/review-decks/deck-05.jpg" x="-80" y="-230" width="160" height="460" preserveAspectRatio="xMidYMid slice"/></g>
      <rect x="-80" y="-230" width="160" height="460" rx="80" fill="none" stroke="#f3efe2" stroke-opacity=".42" stroke-width="3"/>
    </g>
    <g transform="translate(396 692)">
      <rect x="-80" y="-230" width="160" height="460" rx="80" fill="#101014" stroke="#f3efe2" stroke-opacity=".36" stroke-width="3"/>
      <g clip-path="url(#deckClipA)"><image href="./img/review-decks/deck-06.jpg" x="-80" y="-230" width="160" height="460" preserveAspectRatio="xMidYMid slice"/></g>
      <rect x="-80" y="-230" width="160" height="460" rx="80" fill="none" stroke="#f3efe2" stroke-opacity=".42" stroke-width="3"/>
    </g>
    <g transform="translate(556 674)">
      <rect x="-80" y="-230" width="160" height="460" rx="80" fill="#101014" stroke="#f3efe2" stroke-opacity=".36" stroke-width="3"/>
      <g clip-path="url(#deckClipA)"><image href="./img/review-decks/deck-07.jpg" x="-80" y="-230" width="160" height="460" preserveAspectRatio="xMidYMid slice"/></g>
      <rect x="-80" y="-230" width="160" height="460" rx="80" fill="none" stroke="#f3efe2" stroke-opacity=".42" stroke-width="3"/>
    </g>
    <g transform="translate(716 696)">
      <rect x="-80" y="-230" width="160" height="460" rx="80" fill="#101014" stroke="#f3efe2" stroke-opacity=".36" stroke-width="3"/>
      <g clip-path="url(#deckClipA)"><image href="./img/review-decks/deck-08.jpg" x="-80" y="-230" width="160" height="460" preserveAspectRatio="xMidYMid slice"/></g>
      <rect x="-80" y="-230" width="160" height="460" rx="80" fill="none" stroke="#f3efe2" stroke-opacity=".42" stroke-width="3"/>
    </g>
  </g>

  <g filter="url(#heroShadow)" transform="translate(512 560) rotate(-4)">
    <rect x="-118" y="-340" width="236" height="680" rx="118" fill="#09090c" stroke="#f3efe2" stroke-opacity=".62" stroke-width="6"/>
    <g clip-path="url(#heroClip)">
      <image href="./img/review-decks/generated-preview-00.png" x="-178" y="-340" width="356" height="680" preserveAspectRatio="xMidYMid slice"/>
      <rect x="-118" y="-340" width="236" height="680" rx="118" fill="url(#spray)" opacity=".18"/>
      <path d="M-148-156c102-64 198-61 284 10M-126 80c98-46 190-32 274 42M-82 244c56-36 120-43 190-21" fill="none" stroke="#08080a" stroke-width="38" stroke-linecap="round" opacity=".4"/>
      <path d="M-130-250c104 40 170 122 184 246" fill="none" stroke="#f3efe2" stroke-width="19" stroke-linecap="round" opacity=".64"/>
    </g>
    <rect x="-118" y="-340" width="236" height="680" rx="118" fill="none" stroke="#f3efe2" stroke-opacity=".7" stroke-width="5"/>
    <path d="M-150-168h300M-150 174h300" stroke="#08080a" stroke-width="18" stroke-linecap="round"/>
    <path d="M-116-168H116M-116 174H116" stroke="url(#chrome)" stroke-width="12" stroke-linecap="round"/>
    <g transform="translate(0 -168)">
      <rect x="-38" y="-25" width="76" height="50" rx="10" fill="#c9c1ab" stroke="#f3efe2" stroke-opacity=".55" stroke-width="3"/>
      <circle cx="0" cy="0" r="26" fill="#151519"/>
      <circle cx="0" cy="0" r="16" fill="#f3efe2" opacity=".75"/>
      <circle cx="0" cy="0" r="9" fill="#0a0a0d"/>
      <rect x="-176" y="-31" width="58" height="62" rx="18" fill="#f3efe2"/>
      <rect x="118" y="-31" width="58" height="62" rx="18" fill="#f3efe2"/>
    </g>
    <g transform="translate(0 174)">
      <rect x="-38" y="-25" width="76" height="50" rx="10" fill="#c9c1ab" stroke="#f3efe2" stroke-opacity=".55" stroke-width="3"/>
      <circle cx="0" cy="0" r="26" fill="#151519"/>
      <circle cx="0" cy="0" r="16" fill="#f3efe2" opacity=".75"/>
      <circle cx="0" cy="0" r="9" fill="#0a0a0d"/>
      <rect x="-176" y="-31" width="58" height="62" rx="18" fill="#f3efe2"/>
      <rect x="118" y="-31" width="58" height="62" rx="18" fill="#f3efe2"/>
    </g>
  </g>

  <rect x="44" y="46" width="936" height="932" rx="54" fill="none" stroke="#f3efe2" stroke-opacity=".1" stroke-width="2"/>
  <text x="512" y="132" text-anchor="middle" fill="#f3efe2" font-family="Impact, Haettenschweiler, 'Arial Black', sans-serif" font-size="116" font-style="italic" letter-spacing="2" filter="url(#typeShadow)">DECK WALL</text>
  <text x="512" y="174" text-anchor="middle" fill="#23d6ff" font-family="Arial Black, sans-serif" font-size="24" letter-spacing="9">AVATAR SPRAY WALL</text>
  <g transform="translate(512 914)">
    <rect x="-292" y="-38" width="584" height="76" rx="38" fill="#050507" fill-opacity=".8" stroke="#f3efe2" stroke-opacity=".2"/>
    <circle cx="-240" cy="0" r="25" fill="#ff4f8b"/>
    <text x="-240" y="10" text-anchor="middle" fill="#08080a" font-family="Arial Black, sans-serif" font-size="31">+</text>
    <text x="-188" y="-4" fill="#f3efe2" font-family="Arial Black, sans-serif" font-size="24" letter-spacing="4">GENERATE</text>
    <text x="12" y="-4" fill="#f4e04d" font-family="Arial Black, sans-serif" font-size="24" letter-spacing="4">SPRAY</text>
    <text x="166" y="-4" fill="#23d6ff" font-family="Arial Black, sans-serif" font-size="24" letter-spacing="4">HANG</text>
    <text x="-188" y="24" fill="#f3efe2" fill-opacity=".62" font-family="Arial, sans-serif" font-size="18">turn your avatar into a shared skate deck</text>
  </g>
</svg>
